<?xml version="1.0" encoding="UTF-8" standalone="no"?>
<!DOCTYPE svg PUBLIC "-//W3C//DTD SVG 1.1//EN"
 "http://www.w3.org/Graphics/SVG/1.1/DTD/svg11.dtd">
<!-- Generated by graphviz version 2.47.0 (20210316.0004)
 -->
<!-- Title: dependencies Pages: 1 -->
<svg width="2108pt" height="284pt"
 viewBox="0.00 0.00 2108.00 284.00" xmlns="http://www.w3.org/2000/svg" xmlns:xlink="http://www.w3.org/1999/xlink">
<g id="graph0" class="graph" transform="scale(1 1) rotate(0) translate(4 280)">
<title>dependencies</title>
<polygon fill="white" stroke="transparent" points="-4,4 -4,-280 2104,-280 2104,4 -4,4"/>
<text text-anchor="start" x="1029.01" y="-42.4" font-family="sans-serif" font-weight="bold" font-size="14.00">Legend</text>
<polygon fill="#ffffb3" stroke="transparent" points="816,-10 816,-30 836,-30 836,-10 816,-10"/>
<text text-anchor="start" x="839.63" y="-15.4" font-family="sans-serif" font-size="14.00"> &#160;Declarations</text>
<polygon fill="#8dd3c7" stroke="transparent" points="929,-10 929,-30 949,-30 949,-10 929,-10"/>
<text text-anchor="start" x="952.73" y="-15.4" font-family="sans-serif" font-size="14.00"> &#160;Module</text>
<polygon fill="#80b1d3" stroke="transparent" points="1015,-10 1015,-30 1035,-30 1035,-10 1015,-10"/>
<text text-anchor="start" x="1038.78" y="-15.4" font-family="sans-serif" font-size="14.00"> &#160;Bootstrap</text>
<polygon fill="#fdb462" stroke="transparent" points="1112,-10 1112,-30 1132,-30 1132,-10 1112,-10"/>
<text text-anchor="start" x="1135.67" y="-15.4" font-family="sans-serif" font-size="14.00"> &#160;Providers</text>
<polygon fill="#fb8072" stroke="transparent" points="1208,-10 1208,-30 1228,-30 1228,-10 1208,-10"/>
<text text-anchor="start" x="1231.73" y="-15.4" font-family="sans-serif" font-size="14.00"> &#160;Exports</text>
<g id="clust1" class="cluster">
<title>cluster_AppModule</title>
<polygon fill="none" stroke="black" stroke-dasharray="1,5" points="8,-70 8,-268 2092,-268 2092,-70 8,-70"/>
</g>
<g id="clust2" class="cluster">
<title>cluster_AppModule_declarations</title>
<polygon fill="none" stroke="black" points="168,-78 168,-130 2084,-130 2084,-78 168,-78"/>
</g>
<g id="clust16" class="cluster">
<title>cluster_AppModule_imports</title>
<polygon fill="none" stroke="black" points="16,-78 16,-130 160,-130 160,-78 16,-78"/>
</g>
<g id="clust18" class="cluster">
<title>cluster_AppModule_bootstrap</title>
<polygon fill="none" stroke="black" points="1060,-208 1060,-260 1184,-260 1184,-208 1060,-208"/>
</g>
<!-- AlertasComponent -->
<g id="node1" class="node">
<title>AlertasComponent</title>
<polygon fill="#ffffb3" stroke="black" points="2075.75,-122 1954.25,-122 1954.25,-86 2075.75,-86 2075.75,-122"/>
<text text-anchor="middle" x="2015" y="-99.8" font-family="Times,serif" font-size="14.00">AlertasComponent</text>
</g>
<!-- AppModule -->
<g id="node14" class="node">
<title>AppModule</title>
<polygon fill="#8dd3c7" stroke="black" points="1163.66,-187 1160.66,-191 1139.66,-191 1136.66,-187 1080.34,-187 1080.34,-151 1163.66,-151 1163.66,-187"/>
<text text-anchor="middle" x="1122" y="-164.8" font-family="Times,serif" font-size="14.00">AppModule</text>
</g>
<!-- AlertasComponent&#45;&gt;AppModule -->
<g id="edge1" class="edge">
<title>AlertasComponent&#45;&gt;AppModule</title>
<path fill="none" stroke="black" d="M2015,-122.09C2015,-145.13 2015,-182 2015,-182 2015,-182 1173.87,-182 1173.87,-182"/>
<polygon fill="black" stroke="black" points="1173.87,-178.5 1163.87,-182 1173.87,-185.5 1173.87,-178.5"/>
</g>
<!-- AppComponent -->
<g id="node2" class="node">
<title>AppComponent</title>
<polygon fill="#ffffb3" stroke="black" points="1935.94,-122 1830.06,-122 1830.06,-86 1935.94,-86 1935.94,-122"/>
<text text-anchor="middle" x="1883" y="-99.8" font-family="Times,serif" font-size="14.00">AppComponent</text>
</g>
<!-- AppComponent&#45;&gt;AppModule -->
<g id="edge2" class="edge">
<title>AppComponent&#45;&gt;AppModule</title>
<path fill="none" stroke="black" d="M1883,-122.04C1883,-143.66 1883,-177 1883,-177 1883,-177 1173.73,-177 1173.73,-177"/>
<polygon fill="black" stroke="black" points="1173.73,-173.5 1163.73,-177 1173.73,-180.5 1173.73,-173.5"/>
</g>
<!-- CadastrarComponent -->
<g id="node3" class="node">
<title>CadastrarComponent</title>
<polygon fill="#ffffb3" stroke="black" points="1812.47,-122 1677.53,-122 1677.53,-86 1812.47,-86 1812.47,-122"/>
<text text-anchor="middle" x="1745" y="-99.8" font-family="Times,serif" font-size="14.00">CadastrarComponent</text>
</g>
<!-- CadastrarComponent&#45;&gt;AppModule -->
<g id="edge3" class="edge">
<title>CadastrarComponent&#45;&gt;AppModule</title>
<path fill="none" stroke="black" d="M1745,-122.22C1745,-142.37 1745,-172 1745,-172 1745,-172 1173.84,-172 1173.84,-172"/>
<polygon fill="black" stroke="black" points="1173.84,-168.5 1163.84,-172 1173.84,-175.5 1173.84,-168.5"/>
</g>
<!-- FooterComponent -->
<g id="node4" class="node">
<title>FooterComponent</title>
<polygon fill="#ffffb3" stroke="black" points="1659.88,-122 1542.12,-122 1542.12,-86 1659.88,-86 1659.88,-122"/>
<text text-anchor="middle" x="1601" y="-99.8" font-family="Times,serif" font-size="14.00">FooterComponent</text>
</g>
<!-- FooterComponent&#45;&gt;AppModule -->
<g id="edge4" class="edge">
<title>FooterComponent&#45;&gt;AppModule</title>
<path fill="none" stroke="black" d="M1601,-122.22C1601,-140.83 1601,-167 1601,-167 1601,-167 1173.67,-167 1173.67,-167"/>
<polygon fill="black" stroke="black" points="1173.67,-163.5 1163.67,-167 1173.67,-170.5 1173.67,-163.5"/>
</g>
<!-- InicioComponent -->
<g id="node5" class="node">
<title>InicioComponent</title>
<polygon fill="#ffffb3" stroke="black" points="1523.99,-122 1410.01,-122 1410.01,-86 1523.99,-86 1523.99,-122"/>
<text text-anchor="middle" x="1467" y="-99.8" font-family="Times,serif" font-size="14.00">InicioComponent</text>
</g>
<!-- InicioComponent&#45;&gt;AppModule -->
<g id="edge5" class="edge">
<title>InicioComponent&#45;&gt;AppModule</title>
<path fill="none" stroke="black" d="M1467,-122.03C1467,-139.06 1467,-162 1467,-162 1467,-162 1173.96,-162 1173.96,-162"/>
<polygon fill="black" stroke="black" points="1173.96,-158.5 1163.96,-162 1173.96,-165.5 1173.96,-158.5"/>
</g>
<!-- LoginComponent -->
<g id="node6" class="node">
<title>LoginComponent</title>
<polygon fill="#ffffb3" stroke="black" points="1392.28,-122 1277.72,-122 1277.72,-86 1392.28,-86 1392.28,-122"/>
<text text-anchor="middle" x="1335" y="-99.8" font-family="Times,serif" font-size="14.00">LoginComponent</text>
</g>
<!-- LoginComponent&#45;&gt;AppModule -->
<g id="edge6" class="edge">
<title>LoginComponent&#45;&gt;AppModule</title>
<path fill="none" stroke="black" d="M1335,-122.24C1335,-137.57 1335,-157 1335,-157 1335,-157 1173.83,-157 1173.83,-157"/>
<polygon fill="black" stroke="black" points="1173.83,-153.5 1163.83,-157 1173.83,-160.5 1173.83,-153.5"/>
</g>
<!-- MenuComponent -->
<g id="node7" class="node">
<title>MenuComponent</title>
<polygon fill="#ffffb3" stroke="black" points="1259.99,-122 1146.01,-122 1146.01,-86 1259.99,-86 1259.99,-122"/>
<text text-anchor="middle" x="1203" y="-99.8" font-family="Times,serif" font-size="14.00">MenuComponent</text>
</g>
<!-- MenuComponent&#45;&gt;AppModule -->
<g id="edge7" class="edge">
<title>MenuComponent&#45;&gt;AppModule</title>
<path fill="none" stroke="black" d="M1154.92,-122.11C1154.92,-122.11 1154.92,-140.99 1154.92,-140.99"/>
<polygon fill="black" stroke="black" points="1151.42,-140.99 1154.92,-150.99 1158.42,-140.99 1151.42,-140.99"/>
</g>
<!-- PostagemDeleteComponent -->
<g id="node8" class="node">
<title>PostagemDeleteComponent</title>
<polygon fill="#ffffb3" stroke="black" points="1128.3,-122 955.7,-122 955.7,-86 1128.3,-86 1128.3,-122"/>
<text text-anchor="middle" x="1042" y="-99.8" font-family="Times,serif" font-size="14.00">PostagemDeleteComponent</text>
</g>
<!-- PostagemDeleteComponent&#45;&gt;AppModule -->
<g id="edge8" class="edge">
<title>PostagemDeleteComponent&#45;&gt;AppModule</title>
<path fill="none" stroke="black" d="M1104.16,-122.11C1104.16,-122.11 1104.16,-140.99 1104.16,-140.99"/>
<polygon fill="black" stroke="black" points="1100.66,-140.99 1104.16,-150.99 1107.66,-140.99 1100.66,-140.99"/>
</g>
<!-- PostagemEditComponent -->
<g id="node9" class="node">
<title>PostagemEditComponent</title>
<polygon fill="#ffffb3" stroke="black" points="937.6,-122 778.4,-122 778.4,-86 937.6,-86 937.6,-122"/>
<text text-anchor="middle" x="858" y="-99.8" font-family="Times,serif" font-size="14.00">PostagemEditComponent</text>
</g>
<!-- PostagemEditComponent&#45;&gt;AppModule -->
<g id="edge9" class="edge">
<title>PostagemEditComponent&#45;&gt;AppModule</title>
<path fill="none" stroke="black" d="M858,-122.24C858,-137.57 858,-157 858,-157 858,-157 1070.17,-157 1070.17,-157"/>
<polygon fill="black" stroke="black" points="1070.17,-160.5 1080.17,-157 1070.17,-153.5 1070.17,-160.5"/>
</g>
<!-- TemaComponent -->
<g id="node10" class="node">
<title>TemaComponent</title>
<polygon fill="#ffffb3" stroke="black" points="760.7,-122 647.3,-122 647.3,-86 760.7,-86 760.7,-122"/>
<text text-anchor="middle" x="704" y="-99.8" font-family="Times,serif" font-size="14.00">TemaComponent</text>
</g>
<!-- TemaComponent&#45;&gt;AppModule -->
<g id="edge10" class="edge">
<title>TemaComponent&#45;&gt;AppModule</title>
<path fill="none" stroke="black" d="M704,-122.03C704,-139.06 704,-162 704,-162 704,-162 1070.01,-162 1070.01,-162"/>
<polygon fill="black" stroke="black" points="1070.01,-165.5 1080.01,-162 1070.01,-158.5 1070.01,-165.5"/>
</g>
<!-- TemaDeleteComponent -->
<g id="node11" class="node">
<title>TemaDeleteComponent</title>
<polygon fill="#ffffb3" stroke="black" points="629.74,-122 480.26,-122 480.26,-86 629.74,-86 629.74,-122"/>
<text text-anchor="middle" x="555" y="-99.8" font-family="Times,serif" font-size="14.00">TemaDeleteComponent</text>
</g>
<!-- TemaDeleteComponent&#45;&gt;AppModule -->
<g id="edge11" class="edge">
<title>TemaDeleteComponent&#45;&gt;AppModule</title>
<path fill="none" stroke="black" d="M555,-122.22C555,-140.83 555,-167 555,-167 555,-167 1070.31,-167 1070.31,-167"/>
<polygon fill="black" stroke="black" points="1070.31,-170.5 1080.31,-167 1070.31,-163.5 1070.31,-170.5"/>
</g>
<!-- TemaEditComponent -->
<g id="node12" class="node">
<title>TemaEditComponent</title>
<polygon fill="#ffffb3" stroke="black" points="462.04,-122 325.96,-122 325.96,-86 462.04,-86 462.04,-122"/>
<text text-anchor="middle" x="394" y="-99.8" font-family="Times,serif" font-size="14.00">TemaEditComponent</text>
</g>
<!-- TemaEditComponent&#45;&gt;AppModule -->
<g id="edge12" class="edge">
<title>TemaEditComponent&#45;&gt;AppModule</title>
<path fill="none" stroke="black" d="M394,-122.22C394,-142.37 394,-172 394,-172 394,-172 1070.24,-172 1070.24,-172"/>
<polygon fill="black" stroke="black" points="1070.24,-175.5 1080.24,-172 1070.24,-168.5 1070.24,-175.5"/>
</g>
<!-- UserEditComponent -->
<g id="node13" class="node">
<title>UserEditComponent</title>
<polygon fill="#ffffb3" stroke="black" points="307.59,-122 176.41,-122 176.41,-86 307.59,-86 307.59,-122"/>
<text text-anchor="middle" x="242" y="-99.8" font-family="Times,serif" font-size="14.00">UserEditComponent</text>
</g>
<!-- UserEditComponent&#45;&gt;AppModule -->
<g id="edge13" class="edge">
<title>UserEditComponent&#45;&gt;AppModule</title>
<path fill="none" stroke="black" d="M242,-122.04C242,-143.66 242,-177 242,-177 242,-177 1070.15,-177 1070.15,-177"/>
<polygon fill="black" stroke="black" points="1070.15,-180.5 1080.15,-177 1070.15,-173.5 1070.15,-180.5"/>
</g>
<!-- AppComponent  -->
<g id="node16" class="node">
<title>AppComponent </title>
<polygon fill="#80b1d3" stroke="black" points="1176.44,-252 1067.56,-252 1067.56,-216 1176.44,-216 1176.44,-252"/>
<text text-anchor="middle" x="1122" y="-229.8" font-family="Times,serif" font-size="14.00">AppComponent </text>
</g>
<!-- AppModule&#45;&gt;AppComponent  -->
<g id="edge15" class="edge">
<title>AppModule&#45;&gt;AppComponent </title>
<path fill="none" stroke="black" stroke-dasharray="1,5" d="M1122,-187.11C1122,-187.11 1122,-205.99 1122,-205.99"/>
<polygon fill="black" stroke="black" points="1118.5,-205.99 1122,-215.99 1125.5,-205.99 1118.5,-205.99"/>
</g>
<!-- AppRoutingModule -->
<g id="node15" class="node">
<title>AppRoutingModule</title>
<polygon fill="#8dd3c7" stroke="black" points="152.27,-122 149.27,-126 128.27,-126 125.27,-122 23.73,-122 23.73,-86 152.27,-86 152.27,-122"/>
<text text-anchor="middle" x="88" y="-99.8" font-family="Times,serif" font-size="14.00">AppRoutingModule</text>
</g>
<!-- AppRoutingModule&#45;&gt;AppModule -->
<g id="edge14" class="edge">
<title>AppRoutingModule&#45;&gt;AppModule</title>
<path fill="none" stroke="black" d="M88,-122.09C88,-145.13 88,-182 88,-182 88,-182 1070.19,-182 1070.19,-182"/>
<polygon fill="black" stroke="black" points="1070.19,-185.5 1080.19,-182 1070.19,-178.5 1070.19,-185.5"/>
</g>
</g>
</svg>
